<svg width="899" height="531" viewBox="0 0 899 531" fill="none" xmlns="http://www.w3.org/2000/svg">
<path d="M0.935271 -192.03L19.2049 -147.529C37.5662 -103.176 74.1055 -14.1749 140.822 26.2354C207.538 66.6457 304.431 58.4651 370.23 100.352C436.029 142.24 470.734 234.195 528.278 289.374C585.822 344.554 666.205 362.958 766.217 349.756C866.229 336.554 986.053 291.45 1062.4 316.352C1138.75 341.255 1171.62 436.164 1188.14 483.471L1204.58 530.925L1512.77 34.6778L1479.64 14.1035C1446.51 -6.47096 1380.25 -47.6197 1314 -88.7685C1247.74 -129.917 1181.48 -171.066 1115.22 -212.215C1048.97 -253.364 982.709 -294.512 916.451 -335.661C850.193 -376.81 783.936 -417.959 717.678 -459.107C651.421 -500.256 585.163 -541.405 518.905 -582.554C452.648 -623.702 386.39 -664.851 353.261 -685.426L320.132 -706L0.935271 -192.03Z" fill="#4F65F6"/>
</svg>
