<svg width="814" height="583" viewBox="0 0 814 583" fill="none" xmlns="http://www.w3.org/2000/svg">
<g clip-path="url(#clip0_1002_137)">
<path d="M446.606 582.088L445.407 580.841C445.644 580.613 469.239 557.509 478.231 514.334C486.535 474.465 483.73 408.825 423.21 322.528C397.923 286.471 380.679 252.404 371.956 221.274C364.829 195.838 363.32 172.192 367.471 150.993C375.678 109.081 403.573 90.6808 403.853 90.5L404.791 91.9536C404.516 92.131 377.204 110.186 369.158 151.379C359.927 198.64 378.589 255.889 424.627 321.535C451.509 359.868 469.404 397.404 477.815 433.101C484.553 461.697 485.255 489.184 479.901 514.798C470.777 558.455 446.847 581.857 446.606 582.088Z" fill="#F2F2F2"/>
<path d="M388.536 187.033C425.514 187.033 455.491 157.056 455.491 120.078C455.491 83.0993 425.514 53.1226 388.536 53.1226C351.557 53.1226 321.58 83.0993 321.58 120.078C321.58 157.056 351.557 187.033 388.536 187.033Z" fill="#F2F2F2"/>
<path d="M404.322 178.454C386.279 178.454 368.641 173.104 353.639 163.08C338.636 153.056 326.943 138.808 320.039 122.138C313.134 105.469 311.327 87.1261 314.847 69.4298C318.367 51.7335 327.056 35.4783 339.814 22.72C352.572 9.96162 368.827 1.27304 386.524 -2.24702C404.22 -5.76707 422.563 -3.96051 439.233 2.9442C455.902 9.84892 470.15 21.5417 480.174 36.5439C490.198 51.5461 495.549 69.1838 495.549 87.2268C495.522 111.413 485.901 134.601 468.799 151.704C451.696 168.806 428.508 178.427 404.322 178.454ZM404.322 -2.27017C386.621 -2.27021 369.317 2.97867 354.6 12.8127C339.882 22.6468 328.411 36.6244 321.637 52.9779C314.863 69.3314 313.09 87.3263 316.544 104.687C319.997 122.048 328.521 137.995 341.037 150.511C353.554 163.028 369.501 171.551 386.862 175.005C404.222 178.458 422.217 176.686 438.571 169.912C454.924 163.138 468.902 151.667 478.736 136.949C488.57 122.231 493.819 104.928 493.819 87.2268C493.792 63.499 484.354 40.7507 467.576 23.9726C450.798 7.19448 428.05 -2.24328 404.322 -2.27017Z" fill="#F2F2F2"/>
<path d="M455.491 327.475C486.156 327.475 511.015 302.616 511.015 271.951C511.015 241.286 486.156 216.427 455.491 216.427C424.826 216.427 399.967 241.286 399.967 271.951C399.967 302.616 424.826 327.475 455.491 327.475Z" fill="#F2F2F2"/>
<path d="M427.184 520.174C457.849 520.174 482.708 495.315 482.708 464.651C482.708 433.986 457.849 409.127 427.184 409.127C396.52 409.127 371.661 433.986 371.661 464.651C371.661 495.315 396.52 520.174 427.184 520.174Z" fill="#F2F2F2"/>
<path d="M660.28 98.5977H457.029V230.926H660.28V98.5977Z" fill="#4F65F6"/>
<path d="M931.476 582.075H743.239C743.239 582.075 739.423 526.112 761.999 525.476C784.575 524.84 782.031 550.278 810.33 515.301C838.629 480.324 872.97 482.232 877.421 502.9C881.873 523.568 868.836 540.103 892.684 535.015C916.532 529.927 950.872 543.282 931.476 582.075Z" fill="#F2F2F2"/>
<path d="M772.887 582.116L772.257 582.028C774.309 568.214 772.137 554.103 766.027 541.545C763.52 536.278 760.203 531.437 756.195 527.198L756.635 526.739C760.695 531.029 764.057 535.931 766.597 541.263C772.764 553.935 774.957 568.176 772.887 582.116Z" fill="white"/>
<path d="M73.9813 581.891L73.5472 580.999C73.415 580.728 60.4112 553.545 67.6614 526.744C74.9121 499.942 99.8467 483.022 100.098 482.855L100.921 482.303L101.356 483.195C101.488 483.466 114.492 510.649 107.241 537.45C99.9908 564.252 75.0562 581.172 74.8053 581.339L73.9813 581.891ZM100.224 484.883C95.8584 488.059 75.6625 503.792 69.3313 527.195C62.9953 550.617 72.5092 574.369 74.679 579.31C79.0444 576.135 99.2403 560.402 105.571 536.999C111.908 513.577 102.394 489.824 100.224 484.883Z" fill="#3F3D56"/>
<path d="M40.4541 537.225C47.7038 564.024 72.5357 580.621 72.5357 580.621C72.5357 580.621 85.6135 553.769 78.3637 526.97C71.114 500.171 46.2822 483.573 46.2822 483.573C46.2822 483.573 33.2044 510.426 40.4541 537.225Z" fill="#4F65F6"/>
<path d="M74.3729 581.516L73.383 581.462C73.0814 581.446 43.0056 579.592 23.1096 560.225C3.2145 540.858 0.552665 510.843 0.528171 510.541L0.44751 509.554L1.43741 509.608C1.73895 509.624 31.8148 511.478 51.7103 530.845C71.6059 550.213 74.2677 580.227 74.2922 580.529L74.3729 581.516ZM2.36313 511.418C3.01559 516.776 6.94352 542.074 24.3166 558.985C41.6897 575.898 67.0829 579.144 72.4573 579.652C71.8048 574.293 67.8769 548.997 50.5034 532.085C33.1176 515.16 7.73493 511.924 2.36313 511.418Z" fill="#3F3D56"/>
<path d="M95.7533 531.465C75.86 550.83 73.4302 580.6 73.4302 580.6C73.4302 580.6 103.254 578.972 123.147 559.606C143.04 540.24 145.47 510.471 145.47 510.471C145.47 510.471 115.647 512.099 95.7533 531.465Z" fill="#3F3D56"/>
<path d="M257.489 363.676C237.596 383.041 235.166 412.81 235.166 412.81C235.166 412.81 264.989 411.182 284.883 391.816C304.776 372.451 307.206 342.682 307.206 342.682C307.206 342.682 277.382 344.311 257.489 363.676Z" fill="#3F3D56"/>
<path d="M73.0156 479.151C80.1806 479.151 85.989 473.342 85.989 466.177C85.989 459.012 80.1806 453.204 73.0156 453.204C65.8505 453.204 60.0421 459.012 60.0421 466.177C60.0421 473.342 65.8505 479.151 73.0156 479.151Z" fill="#4F65F6"/>
<path d="M230.41 581.222L229.212 579.976C229.4 579.795 248.114 561.463 255.242 527.211C261.825 495.575 259.589 443.487 211.555 374.995C174.716 322.465 159.808 276.571 167.246 238.587C173.78 205.217 196.003 190.559 196.227 190.415L197.164 191.868C196.947 192.009 175.306 206.322 168.933 238.973C161.614 276.468 176.431 321.898 212.972 374.002C234.341 404.473 248.567 434.314 255.254 462.694C260.612 485.437 261.17 507.299 256.912 527.673C249.652 562.409 230.602 581.038 230.41 581.222Z" fill="#3F3D56"/>
<path d="M221.777 233.521C307.758 233.521 377.459 221.563 377.459 206.813C377.459 192.062 307.758 180.105 221.777 180.105C135.797 180.105 66.0963 192.062 66.0963 206.813C66.0963 221.563 135.797 233.521 221.777 233.521Z" fill="#4F65F6"/>
<path d="M192.804 225.737C84.8939 225.737 0.364258 210.921 0.364258 192.006C0.364258 173.092 84.8939 158.275 192.804 158.275C300.713 158.275 385.243 173.092 385.243 192.006C385.243 210.921 300.713 225.737 192.804 225.737ZM192.804 160.005C89.4283 160.005 2.09405 174.66 2.09405 192.006C2.09405 209.353 89.4283 224.007 192.804 224.007C296.179 224.007 383.513 209.353 383.513 192.006C383.513 174.66 296.179 160.005 192.804 160.005Z" fill="#3F3D56"/>
<path d="M236.533 60.9265C236.533 60.9265 213.463 54.428 206.64 85.946C199.816 117.464 205.015 133.385 205.015 133.385L256.516 127.374C256.516 127.374 271.138 70.5119 236.533 60.9265Z" fill="#2F2E41"/>
<path d="M202.018 197.438C202.018 197.438 168.178 200.808 174.205 214.47C180.233 228.132 180.233 229.337 180.233 229.337L209.967 282.377L219.611 272.332C219.611 272.332 208.762 248.624 208.762 240.99C208.762 233.355 197.511 220.095 197.511 220.095L217.2 218.488L202.018 197.438Z" fill="#A0616A"/>
<path d="M294.751 213.666L306.002 238.177C306.002 238.177 314.44 246.615 323.682 280.368C332.924 314.121 334.933 312.915 334.933 312.915L320.869 315.728C320.869 315.728 305.198 279.163 299.975 276.35C294.751 273.537 288.322 247.821 288.322 247.821L269.838 224.515L275.464 212.059L294.751 213.666Z" fill="#A0616A"/>
<path d="M281.089 185.539L298.367 217.685C298.367 217.685 276.669 207.639 273.455 229.739L253.765 214.47C253.765 214.47 226.442 223.31 209.967 220.095C209.967 220.095 214.789 204.826 197.511 197.995L236.487 193.174L234.88 184.735L238.898 176.699L281.089 185.539Z" fill="#2F2E41"/>
<path d="M212.378 275.145C212.378 275.145 201.529 273.537 204.342 283.181L209.967 302.468C209.967 302.468 202.734 322.157 213.985 317.737C225.236 313.317 232.469 285.994 232.469 285.994C232.469 285.994 237.291 265.099 232.469 265.099C227.647 265.099 212.378 261.885 213.985 265.099C215.593 268.314 212.378 275.145 212.378 275.145Z" fill="#2F2E41"/>
<path d="M333.727 307.29C333.727 307.29 319.664 303.673 316.449 309.299C313.235 314.924 314.038 333.408 314.038 333.81C314.038 334.212 318.86 338.23 320.467 338.23C322.075 338.23 332.12 356.312 345.782 349.882C359.444 343.453 333.727 307.29 333.727 307.29Z" fill="#2F2E41"/>
<path d="M232.469 109.997C241.124 109.997 248.14 102.981 248.14 94.3262C248.14 85.6714 241.124 78.6553 232.469 78.6553C223.814 78.6553 216.798 85.6714 216.798 94.3262C216.798 102.981 223.814 109.997 232.469 109.997Z" fill="#A0616A"/>
<path d="M245.327 97.5408C245.327 97.5408 248.542 114.417 251.355 116.828C254.167 119.239 230.058 122.855 230.058 122.855C230.058 122.855 233.674 111.203 229.254 105.175C224.834 99.148 245.327 97.5408 245.327 97.5408Z" fill="#A0616A"/>
<path d="M287.518 193.173C284.782 193.173 277.814 192.04 270.003 190.582C263.244 189.32 255.847 187.821 250.012 186.608C243.764 185.306 239.3 184.333 239.3 184.333C239.3 184.333 237.693 194.379 232.469 193.173C227.969 192.137 214.52 145.16 210.883 132.177C210.618 131.23 210.669 130.221 211.029 129.305C211.39 128.388 212.04 127.615 212.88 127.103L231.352 115.823L236.085 117.632C236.085 117.632 244.082 111.452 248.723 111.327C253.364 111.203 261.4 109.997 261.4 109.997C261.4 109.997 270.642 110.801 272.249 117.632C273.856 124.463 274.66 167.055 280.687 174.69C286.715 182.324 295.153 193.173 287.518 193.173Z" fill="#D0CDE1"/>
<path d="M231.264 215.675C231.264 215.675 231.264 231.346 241.711 228.935C252.158 226.524 242.515 212.059 242.515 212.059L231.264 215.675Z" fill="#A0616A"/>
<path d="M260.195 217.282C260.195 217.282 256.578 235.766 248.944 232.953C241.309 230.141 248.944 213.666 248.944 213.666L260.195 217.282Z" fill="#A0616A"/>
<path opacity="0.15" d="M277.071 173.484C277.071 173.484 273.137 182.871 270.003 190.582C263.245 189.32 255.847 187.821 250.013 186.608C250.432 185.498 251.02 184.46 251.756 183.53C254.569 180.315 252.962 179.512 252.962 179.512C250.551 174.69 252.56 168.261 252.56 168.261C247.738 155.402 254.971 139.33 254.971 139.33L277.071 173.484Z" fill="black"/>
<path d="M256.176 139.33C256.176 139.33 248.944 155.403 253.766 168.261C253.766 168.261 251.756 174.69 254.167 179.512C254.167 179.512 255.775 180.315 252.962 183.53C250.149 186.744 247.738 197.995 249.747 200.406C251.756 202.817 246.935 207.237 248.14 209.648C249.346 212.059 246.131 215.274 246.131 215.274C246.131 215.274 258.186 217.684 260.195 221.301C260.195 221.301 262.606 218.488 261.4 215.274C260.195 212.059 260.998 210.854 262.204 208.844C263.409 206.835 267.026 202.415 267.427 200.406C267.829 198.397 278.277 173.484 278.277 173.484L273.377 128.085L256.176 139.33Z" fill="#D0CDE1"/>
<path d="M214.387 128.079L213.637 128.215C212.59 128.405 211.644 128.958 210.965 129.777C210.286 130.596 209.918 131.629 209.926 132.693C209.955 136.727 210.182 143.887 211.173 153.795C212.78 169.868 218.405 193.977 219.611 196.388C221.525 200.654 223.671 204.813 226.04 208.844C229.656 214.872 230.46 212.863 229.656 215.675C229.412 216.45 229.395 217.279 229.609 218.063C229.823 218.846 230.258 219.552 230.862 220.095C230.862 220.095 238.095 212.059 245.327 216.479C245.844 215.343 246.118 214.111 246.131 212.863C246.131 210.854 247.336 208.844 245.327 207.639C243.318 206.434 246.533 201.21 243.318 198.397C240.104 195.584 239.702 195.986 240.104 193.174C240.291 191.261 240.016 189.331 239.3 187.548L214.387 128.079Z" fill="#D0CDE1"/>
<path d="M238.328 74.196C238.328 74.196 231.829 91.4172 215.908 98.5656L213.308 83.294L238.328 74.196Z" fill="#2F2E41"/>
<path d="M247.738 92.518C248.959 92.518 249.948 90.6291 249.948 88.2989C249.948 85.9688 248.959 84.0798 247.738 84.0798C246.518 84.0798 245.528 85.9688 245.528 88.2989C245.528 90.6291 246.518 92.518 247.738 92.518Z" fill="#A0616A"/>
<path d="M702.134 310.376C717.636 310.376 730.203 297.809 730.203 282.307C730.203 266.804 717.636 254.237 702.134 254.237C686.631 254.237 674.064 266.804 674.064 282.307C674.064 297.809 686.631 310.376 702.134 310.376Z" fill="#2F2E41"/>
<path d="M698.384 254.764C703.534 254.764 707.708 250.589 707.708 245.44C707.708 240.29 703.534 236.116 698.384 236.116C693.235 236.116 689.061 240.29 689.061 245.44C689.061 250.589 693.235 254.764 698.384 254.764Z" fill="#2F2E41"/>
<path d="M687.892 251.214C686.455 249.404 685.741 247.126 685.888 244.821C686.036 242.515 687.034 240.346 688.689 238.734C688.429 238.902 688.174 239.084 687.926 239.28C686.967 240.042 686.168 240.985 685.573 242.055C684.979 243.125 684.601 244.302 684.462 245.519C684.323 246.735 684.424 247.967 684.761 249.144C685.098 250.321 685.663 251.421 686.425 252.379C687.186 253.338 688.129 254.137 689.2 254.732C690.27 255.326 691.447 255.704 692.664 255.843C693.88 255.982 695.112 255.881 696.29 255.544C697.467 255.207 698.566 254.642 699.525 253.881C699.773 253.684 700.008 253.477 700.229 253.261C698.285 254.508 695.946 254.99 693.667 254.612C691.387 254.233 689.33 253.022 687.892 251.214Z" fill="#2F2E41"/>
<path d="M656.157 383.814L639.911 397.561C639.911 397.561 615.541 405.059 627.414 413.182C639.286 421.305 646.16 403.185 646.16 403.185L666.155 390.687L656.157 383.814Z" fill="#FFB9B9"/>
<path d="M691.15 323.828L689.275 322.578C689.275 322.578 681.777 322.578 680.527 330.076C679.277 337.575 675.528 353.196 675.528 353.196C675.528 353.196 663.031 360.694 664.281 374.441L651.159 385.689C651.159 385.689 666.78 390.687 663.656 395.061L686.776 373.816L687.4 333.2L691.15 323.828Z" fill="#2F2E41"/>
<path d="M698.648 309.456C707.621 309.456 714.894 302.182 714.894 293.21C714.894 284.237 707.621 276.963 698.648 276.963C689.675 276.963 682.402 284.237 682.402 293.21C682.402 302.182 689.675 309.456 698.648 309.456Z" fill="#FFB9B9"/>
<path d="M693.649 304.457C693.649 304.457 703.647 315.704 697.398 321.953C691.149 328.202 689.275 358.82 689.275 358.82L716.769 316.954C716.769 316.954 709.27 301.957 709.895 296.959L693.649 304.457Z" fill="#FFB9B9"/>
<path d="M691.774 348.197C691.774 348.197 706.771 315.259 714.894 312.982L736.139 318.204C736.139 318.204 719.268 376.316 721.143 381.94C723.017 387.563 733.64 395.687 729.891 445.051C729.891 445.051 778.005 533.156 766.133 548.153C754.26 563.149 709.895 574.397 709.27 570.023C708.646 565.649 688.65 498.164 691.774 477.543C691.774 477.543 691.774 566.899 688.025 568.773C684.276 570.648 624.29 584.395 626.164 573.772C628.039 563.149 658.032 446.3 658.032 446.3L681.152 373.817L681.777 363.194C681.777 363.194 671.779 356.32 679.277 340.699C686.776 325.077 689.275 322.578 689.275 322.578L698.277 320.888C698.277 320.888 689.9 343.823 691.774 348.197Z" fill="#2F2E41"/>
<path d="M725.517 395.061L718.018 411.308C718.018 411.308 698.648 431.928 712.395 432.553C726.142 433.178 727.391 413.807 727.391 413.807L737.389 395.061H725.517Z" fill="#FFB9B9"/>
<path d="M728.017 318.829H736.14C736.14 318.829 738.639 315.08 741.139 330.701C743.638 346.322 742.388 370.067 742.388 370.067L738.639 401.31C738.639 401.31 725.517 396.311 722.393 397.561C719.268 398.811 722.393 396.936 722.393 396.936L728.017 375.691L721.143 345.073L728.017 318.829Z" fill="#2F2E41"/>
<path d="M697.003 269.254C686.391 272.138 679.152 279.493 680.834 285.683C681.587 288.453 684.004 290.514 687.39 291.695L690.36 288.009L690.495 292.481C690.965 292.561 691.442 292.633 691.934 292.685L695.708 284.737L697.86 292.657C699.628 292.468 701.378 292.138 703.094 291.671C713.706 288.788 720.945 281.432 719.263 275.242C717.581 269.052 707.615 266.371 697.003 269.254Z" fill="#2F2E41"/>
<path d="M715.207 292.897C716.242 292.897 717.081 291.498 717.081 289.773C717.081 288.047 716.242 286.648 715.207 286.648C714.171 286.648 713.332 288.047 713.332 289.773C713.332 291.498 714.171 292.897 715.207 292.897Z" fill="#FFB9B9"/>
<path d="M651.631 582.075C659.751 582.075 666.334 579.17 666.334 575.587C666.334 572.004 659.751 569.099 651.631 569.099C643.51 569.099 636.927 572.004 636.927 575.587C636.927 579.17 643.51 582.075 651.631 582.075Z" fill="#2F2E41"/>
<path d="M731.44 578.984C741.569 574.991 748.361 568.152 746.61 563.708C744.858 559.264 735.226 558.898 725.096 562.891C714.967 566.884 708.175 573.723 709.927 578.167C711.678 582.611 721.31 582.977 731.44 578.984Z" fill="#2F2E41"/>
<path d="M632.148 405.002C631.89 404.938 606.24 398.409 596.479 372.477C585.354 342.92 598.434 301.239 635.355 248.593C680.45 184.29 682.899 162.684 677.012 155.882C669.566 147.278 646.201 158.929 645.967 159.047L645.186 157.503C646.195 156.993 669.993 145.13 678.319 154.749C687.469 165.32 673.489 197.227 636.77 249.586C616.764 278.114 603.686 303.722 597.903 325.696C593.214 343.511 593.276 359.036 598.088 371.842C607.513 396.92 632.309 403.26 632.558 403.321L632.148 405.002Z" fill="#3F3D56"/>
<path d="M646.441 210.169H429.352V68.3267H646.441V210.169ZM431.082 208.439H644.712V70.0564H431.082V208.439Z" fill="#3F3D56"/>
<path d="M519.762 158.061C524.794 158.061 528.872 153.982 528.872 148.951C528.872 143.92 524.794 139.841 519.762 139.841C514.731 139.841 510.653 143.92 510.653 148.951C510.653 153.982 514.731 158.061 519.762 158.061Z" fill="#3F3D56"/>
<path d="M597.546 158.061C602.577 158.061 606.656 153.982 606.656 148.951C606.656 143.92 602.577 139.841 597.546 139.841C592.515 139.841 588.437 143.92 588.437 148.951C588.437 153.982 592.515 158.061 597.546 158.061Z" fill="#3F3D56"/>
<path d="M597.546 186.091C597.546 188.8 579.977 196.602 558.304 196.602C536.631 196.602 519.062 188.8 519.062 186.091C519.062 183.382 536.631 186.792 558.304 186.792C579.977 186.792 597.546 183.382 597.546 186.091Z" fill="#3F3D56"/>
</g>
<defs>
<clipPath id="clip0_1002_137">
<rect width="951.385" height="582.55" fill="white"/>
</clipPath>
</defs>
</svg>
